<svg width="30" height="30" viewBox="0 0 28 28" fill="none" xmlns="http://www.w3.org/2000/svg">
<path d="M20.6571 13.643C20.5856 12.2876 20.1093 11.0396 19.3468 10.0175C19.1456 10.2367 18.8986 10.4749 18.5796 10.743C17.8233 11.3788 16.9071 11.9526 15.8193 12.4175C15.958 12.7089 16.0856 12.9916 16.1978 13.2582L16.1988 13.2604C16.2208 13.3119 16.2398 13.3589 16.2766 13.4515C16.2814 13.4635 16.2859 13.4748 16.2903 13.4854C17.5516 13.3435 18.8812 13.3958 20.1706 13.5704C20.342 13.5936 20.504 13.6179 20.6571 13.643ZM12.8368 7.43444C12.9818 7.63853 13.1333 7.85718 13.3168 8.12817C13.8273 8.88244 14.3298 9.67828 14.8002 10.4959C14.8956 10.6618 14.989 10.8274 15.0802 10.9926C16.0993 10.5916 16.9412 10.0857 17.6197 9.52074C17.8941 9.29221 18.1151 9.07752 18.2834 8.89145C17.1249 7.919 15.6308 7.33335 13.9998 7.33335C13.6032 7.33335 13.2145 7.368 12.8368 7.43444ZM7.54372 12.3313C8.02605 12.3205 8.5704 12.2912 9.24403 12.2293C10.5834 12.1063 11.951 11.8854 13.2956 11.544C12.8098 10.6977 12.2822 9.85278 11.7453 9.04484C11.4872 8.65648 11.2361 8.29162 11.0455 8.02204C9.32935 8.8718 8.03145 10.4388 7.54372 12.3313ZM8.81955 18.1967C9.14243 17.7244 9.56701 17.1929 10.1315 16.6145C11.3432 15.3732 12.7737 14.4065 14.4281 13.8728C14.4513 13.8659 14.4668 13.8614 14.4798 13.8575C14.3423 13.5543 14.2133 13.2838 14.0834 13.0285C12.5534 13.4739 10.9418 13.7525 9.3355 13.8969C8.5525 13.9672 7.84988 13.9984 7.33317 14.0037C7.33402 15.5927 7.8908 17.0517 8.81955 18.1967ZM16.5036 20.1805C16.4166 19.7288 16.3056 19.2255 16.1581 18.645C15.8906 17.5927 15.5555 16.51 15.144 15.4232C13.4758 16.0286 12.1463 16.9145 11.1191 17.9708C10.624 18.4798 10.2602 18.9614 10.0219 19.3503C11.1323 20.1773 12.5089 20.6667 13.9998 20.6667C14.8853 20.6667 15.7306 20.494 16.5036 20.1805ZM18.0647 19.2845C19.3393 18.3027 20.2486 16.87 20.5542 15.2253C20.2709 15.1554 19.9115 15.0838 19.5162 15.0289C18.6462 14.9081 17.751 14.8879 16.8673 15.0015C17.2443 16.0637 17.5533 17.111 17.8005 18.1134C17.9084 18.5512 17.9963 18.9465 18.0647 19.2845ZM13.9998 22.3334C9.39746 22.3334 5.6665 18.6024 5.6665 14C5.6665 9.39765 9.39746 5.66669 13.9998 5.66669C18.6022 5.66669 22.3332 9.39765 22.3332 14C22.3332 18.6024 18.6022 22.3334 13.9998 22.3334Z" fill="#D4D4D4"/>
<circle cx="14" cy="14" r="13.5" stroke="#D4D4D4"/>
</svg>
