<svg width="30" height="30" viewBox="0 0 28 28" fill="none" xmlns="http://www.w3.org/2000/svg">
<path d="M14.0013 5.66669C9.39714 5.66669 5.66797 9.39585 5.66797 14C5.66797 17.6875 8.05339 20.8021 11.3659 21.9063C11.7826 21.9792 11.9388 21.7292 11.9388 21.5104C11.9388 21.3125 11.9284 20.6563 11.9284 19.9584C9.83464 20.3438 9.29297 19.4479 9.1263 18.9792C9.03255 18.7396 8.6263 18 8.27214 17.8021C7.98047 17.6459 7.5638 17.2604 8.26172 17.25C8.91797 17.2396 9.38672 17.8542 9.54297 18.1042C10.293 19.3646 11.4909 19.0104 11.9701 18.7917C12.043 18.25 12.2617 17.8854 12.5013 17.6771C10.6471 17.4688 8.70964 16.75 8.70964 13.5625C8.70964 12.6563 9.03255 11.9063 9.5638 11.3229C9.48047 11.1146 9.1888 10.2604 9.64714 9.1146C9.64714 9.1146 10.3451 8.89585 11.9388 9.96877C12.6055 9.78127 13.3138 9.68752 14.0222 9.68752C14.7305 9.68752 15.4388 9.78127 16.1055 9.96877C17.6992 8.88544 18.3972 9.1146 18.3972 9.1146C18.8555 10.2604 18.5638 11.1146 18.4805 11.3229C19.0117 11.9063 19.3347 12.6459 19.3347 13.5625C19.3347 16.7604 17.3867 17.4688 15.5326 17.6771C15.8347 17.9375 16.0951 18.4375 16.0951 19.2188C16.0951 20.3334 16.0847 21.2292 16.0847 21.5104C16.0847 21.7292 16.2409 21.9896 16.6576 21.9063C20.0497 20.7611 22.3337 17.5803 22.3347 14C22.3347 9.39585 18.6055 5.66669 14.0013 5.66669Z" fill="#D4D4D4"/>
<circle cx="14" cy="14" r="13.5" stroke="#D4D4D4"/>
</svg>
