<svg width="83" height="30" viewBox="0 0 83 30" fill="none" xmlns="http://www.w3.org/2000/svg">
<path d="M0 19V0H1.90765V19H0ZM2.86147 19V0H5.72294V19H2.86147ZM8.58441 19V0H9.53823V19H8.58441Z" fill="#D4D4D4"/>
<path d="M10.4945 19V0H12.4022V19H10.4945ZM15.2637 19V0H16.2175V19H15.2637ZM17.1713 19V0H20.0328V19H17.1713Z" fill="#D4D4D4"/>
<path d="M20.9891 19V0H22.8967V19H20.9891ZM25.7582 19V0H26.712V19H25.7582ZM29.5735 19V0H30.5273V19H29.5735Z" fill="#D4D4D4"/>
<path d="M31.4836 19V0H32.4374V19H31.4836ZM33.3913 19V0H36.2527V19H33.3913ZM39.1142 19V0H41.0218V19H39.1142Z" fill="#D4D4D4"/>
<path d="M41.9782 19V0H43.8858V19H41.9782ZM46.7473 19V0H47.7011V19H46.7473ZM50.5626 19V0H51.5164V19H50.5626Z" fill="#D4D4D4"/>
<path d="M52.4727 19V0H53.4265V19H52.4727ZM56.288 19V0H58.1956V19H56.288ZM59.1494 19V0H62.0109V19H59.1494Z" fill="#D4D4D4"/>
<path d="M62.9672 19V0H64.8749V19H62.9672ZM65.8287 19V0H68.6902V19H65.8287ZM69.644 19V0H72.5055V19H69.644Z" fill="#D4D4D4"/>
<path d="M73.4618 19V0H76.3232V19H73.4618ZM77.2771 19V0H80.1385V19H77.2771ZM81.0923 19V0H83V19H81.0923Z" fill="#D4D4D4"/>
<path d="M6.99569 29.8369V22.1692H4V21H11.3038V22.1692H8.30809V29.8369H6.99569Z" fill="#D4D4D4"/>
<path d="M14.3719 29.8369V21H17.6957C18.6372 21 19.3505 21.2175 19.8355 21.6526C20.33 22.0785 20.5773 22.7039 20.5773 23.5287C20.5773 24.9245 19.9021 25.7447 18.5516 25.9894L20.9339 29.8369H19.4075L17.1108 26.071H15.6843V29.8369H14.3719ZM15.6843 24.9018H17.5531C18.1522 24.9018 18.5802 24.7976 18.8369 24.5891C19.1032 24.3716 19.2364 24.0181 19.2364 23.5287C19.2364 23.0483 19.1032 22.7039 18.8369 22.4955C18.5802 22.2779 18.1522 22.1692 17.5531 22.1692H15.6843V24.9018Z" fill="#D4D4D4"/>
<path d="M24.0306 29.8369V28.6677H26.3986V22.1692H24.0306V21H30.079V22.1692H27.711V28.6677H30.079V29.8369H24.0306Z" fill="#D4D4D4"/>
<path d="M33.6322 29.8369V21H35.2014L38.6678 27.5257V21H39.8803V29.8369H38.5822L34.8447 22.7946V29.8369H33.6322Z" fill="#D4D4D4"/>
<path d="M43.4335 29.8369V28.6677H45.8015V22.1692H43.4335V21H49.4819V22.1692H47.1139V28.6677H49.4819V29.8369H43.4335Z" fill="#D4D4D4"/>
<path d="M53.5486 29.8369V21H54.861V28.6677H59.4116V29.8369H53.5486Z" fill="#D4D4D4"/>
<path d="M65.8606 30C64.8526 30 64.0775 29.7462 63.5354 29.2387C63.0028 28.7311 62.7366 28.006 62.7366 27.0634V21H64.049V26.9411C64.049 28.1918 64.6576 28.8172 65.8749 28.8172C67.0922 28.8172 67.7008 28.1918 67.7008 26.9411V21H68.9847V27.0634C68.9847 28.006 68.7137 28.7311 68.1716 29.2387C67.639 29.7462 66.8687 30 65.8606 30Z" fill="#D4D4D4"/>
<path d="M72.652 29.8369V21H76.0756C77.0362 21 77.7637 21.2175 78.2582 21.6526C78.7527 22.0876 79 22.7311 79 23.5831C79 24.426 78.7527 25.0695 78.2582 25.5136C77.7637 25.9486 77.0362 26.1662 76.0756 26.1662H73.9644V29.8369H72.652ZM73.9644 24.997H75.933C76.5511 24.997 76.9934 24.8882 77.2597 24.6707C77.5259 24.4441 77.6591 24.0816 77.6591 23.5831C77.6591 23.0846 77.5259 22.7266 77.2597 22.5091C76.9934 22.2825 76.5511 22.1692 75.933 22.1692H73.9644V24.997Z" fill="#D4D4D4"/>
</svg>
