<svg width="30" height="30" viewBox="0 0 28 28" fill="none" xmlns="http://www.w3.org/2000/svg">
<path d="M14.2031 8C14.6482 8.00221 15.7618 8.0119 16.9449 8.05455L17.3644 8.07101C18.5557 8.12177 19.7459 8.20849 20.3363 8.35663C21.1237 8.55571 21.7426 9.13663 21.9518 9.87299C22.2848 11.0423 22.3265 13.3246 22.3317 13.8769L22.3324 13.9913V13.9993C22.3324 13.9993 22.3324 14.0021 22.3324 14.0074L22.3317 14.1219C22.3265 14.6742 22.2848 16.9564 21.9518 18.1257C21.7397 18.8648 21.1208 19.4458 20.3363 19.6421C19.7459 19.7902 18.5557 19.8769 17.3644 19.9277L16.9449 19.9441C15.7618 19.9868 14.6482 19.9965 14.2031 19.9987L14.0078 19.9993H13.9991C13.9991 19.9993 13.9962 19.9993 13.9904 19.9993L13.7953 19.9987C12.8533 19.9941 8.9146 19.9558 7.66193 19.6421C6.8745 19.443 6.2556 18.8621 6.0464 18.1257C5.71334 16.9564 5.6717 14.6742 5.6665 14.1219V13.8769C5.6717 13.3246 5.71334 11.0423 6.0464 9.87299C6.2585 9.1339 6.8774 8.55299 7.66193 8.35663C8.9146 8.04292 12.8533 8.00466 13.7953 8H14.2031ZM12.3324 11.3744V16.6243L17.3324 13.9993L12.3324 11.3744Z" fill="#D4D4D4"/>
<circle cx="14" cy="14" r="13.5" stroke="#D4D4D4"/>
</svg>
